<svg width="256" height="37" viewBox="0 0 256 37" fill="none" xmlns="http://www.w3.org/2000/svg">
<path d="M34.632 18.92H17.964V21.152V24.068V31.268C17.784 31.268 17.64 31.268 17.46 31.268C17.424 31.268 17.388 31.268 17.316 31.268V0.2C17.1 0.2 16.884 0.2 16.668 0.2V31.232C16.452 31.232 16.272 31.232 16.056 31.196V0.235999C15.84 0.271999 15.624 0.307998 15.408 0.307998V31.088C15.192 31.088 14.976 31.016 14.796 30.98V0.379999C14.544 0.415999 14.328 0.451998 14.112 0.487998V30.836C13.896 30.764 13.68 30.692 13.464 30.62V0.631998C13.248 0.667998 13.032 0.739999 12.816 0.775999V30.368C12.6 30.296 12.42 30.224 12.204 30.116V0.955998C11.988 1.028 11.772 1.1 11.556 1.172V29.792C11.34 29.648 11.124 29.54 10.944 29.396V1.424C10.692 1.496 10.476 1.604 10.26 1.676V28.964C10.044 28.82 9.828 28.64 9.648 28.46V1.964C9.396 2.072 9.18 2.216 8.964 2.324V27.848C8.748 27.668 8.568 27.452 8.352 27.236V2.684C8.136 2.792 7.92 2.936 7.704 3.08V26.408C7.488 26.12 7.272 25.796 7.092 25.472V3.512C6.84 3.692 6.624 3.872 6.408 4.052V24.248C6.156 23.744 5.976 23.168 5.796 22.628V4.592C5.544 4.772 5.328 4.988 5.112 5.204V18.848H4.5V5.852C4.284 6.104 4.068 6.356 3.852 6.644V18.848H3.24V7.472C2.988 7.832 2.772 8.156 2.556 8.516V18.848H1.944V9.668C1.692 10.172 1.476 10.676 1.26 11.18V18.848H0.648V13.088C0.216 14.672 0 16.4 0 18.236C0 18.452 0 18.668 0 18.848C0.288 29 7.704 36.2 17.46 36.2C23.904 36.2 31.212 31.844 33.66 25.04V25.076C34.128 23.924 34.38 21.944 34.632 18.92ZM5.148 18.848C5.148 18.884 5.148 18.92 5.148 18.992C5.148 18.956 5.148 18.92 5.112 18.848H5.148ZM21.168 24.068H21.816V30.548C21.6 30.62 21.384 30.692 21.168 30.764V24.068ZM20.52 30.908C20.304 30.98 20.124 31.016 19.908 31.052V24.068H20.52V30.908ZM22.464 24.068H23.112V30.008C22.896 30.116 22.68 30.224 22.464 30.296V24.068ZM23.76 24.068H24.372V29.288C24.156 29.432 23.976 29.54 23.76 29.684V24.068ZM25.02 24.068H25.668V28.316C25.452 28.496 25.236 28.676 25.02 28.82V24.068ZM26.316 24.068H26.964V26.948C26.748 27.2 26.532 27.416 26.316 27.668V24.068ZM18.612 24.068H19.26V31.16C19.044 31.196 18.828 31.196 18.612 31.232V24.068ZM27.612 26.012V24.068H28.62C28.332 24.788 28.008 25.4 27.612 26.012ZM55.5556 36.2L44.1076 22.592C50.2636 21.512 53.3596 16.688 53.3596 11.612C53.3596 5.924 49.4716 0.2 41.6956 0.2H35.6836V2.54V5.42V17.876V20.36V36.2H36.3676V21.152L36.9796 21.908V36.2H37.6276V22.736L38.2756 23.456V36.2H38.9236V24.284L39.5716 25.04V36.2H40.2196V25.832L40.8676 26.588V36.2H41.5156V27.38L42.1636 28.136V36.2H42.8116V28.964L43.4596 29.72V36.2H44.1076V30.512L44.7556 31.268V36.2H45.4036V32.06L46.0516 32.816V36.2H46.6996V33.644L47.3476 34.4V36.2H47.9956V35.192L48.8236 36.2H55.5556ZM46.6996 7.508C46.9516 7.796 47.1676 8.084 47.3476 8.372V14.888C47.1676 15.212 46.9516 15.5 46.6996 15.788V7.508ZM46.0516 16.436C45.8356 16.58 45.6196 16.724 45.4036 16.868V6.428C45.6196 6.536 45.8356 6.716 46.0516 6.86V16.436ZM44.7556 17.228C44.5396 17.336 44.3236 17.408 44.1076 17.48V5.816C44.3236 5.888 44.5396 5.96 44.7556 6.068V17.228ZM47.9956 13.268V9.992C48.1396 10.532 48.2116 11.072 48.2116 11.612C48.2116 12.188 48.1396 12.728 47.9956 13.268ZM36.3676 17.876V5.42H36.9796V17.876H36.3676ZM37.6276 17.876V5.42H38.2756V17.876H37.6276ZM38.9236 17.876V5.42H39.5716V17.876H38.9236ZM40.2196 17.876V5.42H40.8676V17.876H40.2196ZM41.6956 17.876H41.5156V5.42H41.6956C41.8396 5.42 42.0196 5.42 42.1636 5.456V17.84C42.0196 17.84 41.8396 17.876 41.6956 17.876ZM42.8116 17.768V5.492C43.0276 5.528 43.2436 5.564 43.4596 5.6V17.66C43.2436 17.732 43.0276 17.768 42.8116 17.768ZM63.5611 5.42H79.4371V0.2H57.6211V5.42H62.8411H63.5611ZM62.8411 31.016V30.98H57.6211V36.2H79.4731V31.016H62.8411ZM71.1931 6.248H57.6211V6.932H71.1931V6.248ZM71.1931 7.544H57.6211V8.228H71.1931V7.544ZM71.1931 8.876H57.6211V9.524H71.1931V8.876ZM71.1931 10.172H57.6211V10.82H71.1931V10.172ZM71.1931 11.468H57.6211V12.152H71.1931V11.468ZM71.1931 12.764H57.6211V13.448H71.1931V12.764ZM71.1931 14.06H57.6211V14.744H71.1931V14.06ZM71.1931 21.692H57.6211V22.34H71.1931V21.692ZM71.1931 22.988H57.6211V23.636H71.1931V22.988ZM71.1931 24.284H57.6211V24.968H71.1931V24.284ZM71.1931 25.58H57.6211V26.264H71.1931V25.58ZM71.1931 26.876H57.6211V27.56H71.1931V26.876ZM71.1931 28.172H57.6211V28.856H71.1931V28.172ZM57.6211 30.152H71.1931V29.504H57.6211V30.152ZM75.6571 15.536H57.6211V20.792H75.6571V15.536ZM87.3267 5.42H103.203V0.2H81.3867V5.42H86.6067H87.3267ZM86.6067 31.016V30.98H81.3867V36.2H103.239V31.016H86.6067ZM94.9587 6.248H81.3867V6.932H94.9587V6.248ZM94.9587 7.544H81.3867V8.228H94.9587V7.544ZM94.9587 8.876H81.3867V9.524H94.9587V8.876ZM94.9587 10.172H81.3867V10.82H94.9587V10.172ZM94.9587 11.468H81.3867V12.152H94.9587V11.468ZM94.9587 12.764H81.3867V13.448H94.9587V12.764ZM94.9587 14.06H81.3867V14.744H94.9587V14.06ZM94.9587 21.692H81.3867V22.34H94.9587V21.692ZM94.9587 22.988H81.3867V23.636H94.9587V22.988ZM94.9587 24.284H81.3867V24.968H94.9587V24.284ZM94.9587 25.58H81.3867V26.264H94.9587V25.58ZM94.9587 26.876H81.3867V27.56H94.9587V26.876ZM94.9587 28.172H81.3867V28.856H94.9587V28.172ZM81.3867 30.152H94.9587V29.504H81.3867V30.152ZM99.4227 15.536H81.3867V20.792H99.4227V15.536ZM120.202 0.2V26.156L119.554 25.256V0.2H118.906V24.32L118.294 23.456V0.2H117.61V22.484L116.998 21.584V0.2H116.314V20.648L115.666 19.712V0.2H115.018V18.74L114.406 17.876V0.2H113.722V16.904L113.11 16.004V0.2H112.426V15.068L111.814 14.132V0.2H111.13V13.196L110.518 12.296V0.2H109.87V11.36L109.222 10.46V0.2H108.574V9.488L107.926 8.552V0.2H107.242V7.616L106.63 6.716V0.2H105.982V5.78L105.334 4.88V0.2H104.686V3.908L104.038 3.008V0.2H103.39V2.036L102.094 0.2V1.568V9.272V36.2H102.778V10.208L103.282 10.964V10.928L103.39 11.072V36.2H104.038V12.044L104.686 12.944V36.2H105.334V13.916L105.982 14.816V36.2H106.63V15.752L107.242 16.652V36.2H107.926V17.588L108.574 18.524V36.2H109.222V19.496L109.87 20.396V36.2H110.518V21.332L111.13 22.232V36.2H111.814V23.168L112.426 24.104V36.2H113.11V25.04L113.722 25.94V36.2H114.406V26.912L115.018 27.776V36.2H115.666V28.748L116.314 29.684V36.2H116.998V30.62L117.61 31.52V36.2H118.294V32.492L118.906 33.356V36.2H119.554V34.328L120.886 36.2V27.812V27.092V0.2H120.202ZM149.394 16.364C152.994 13.808 153.462 9.668 152.022 6.14C150.69 2.792 147.81 0.2 143.274 0.2H129.234V4.268V5.132V31.16V32.24V36.2H144.57C151.446 36.2 155.01 30.728 155.01 25.328C155.01 21.944 153.498 18.128 149.394 16.364ZM145.47 5.744C145.686 5.888 145.902 6.032 146.082 6.212V13.376C145.902 13.556 145.686 13.736 145.47 13.88V5.744ZM144.822 14.204C144.606 14.276 144.39 14.348 144.174 14.42V5.24C144.39 5.276 144.606 5.348 144.822 5.42V14.204ZM146.766 7.076C147.09 7.616 147.306 8.228 147.414 8.876V10.676C147.306 11.324 147.09 11.936 146.766 12.512V7.076ZM146.082 19.892V30.944C145.902 30.98 145.686 31.052 145.47 31.088V19.748C145.686 19.784 145.902 19.82 146.082 19.892ZM146.766 20.108C146.982 20.216 147.198 20.324 147.414 20.468V30.332C147.198 30.476 146.982 30.584 146.766 30.692V20.108ZM143.526 5.168V14.492C143.418 14.492 143.31 14.528 143.202 14.528H142.878V5.132H143.274C143.382 5.132 143.454 5.168 143.526 5.168ZM132.51 5.132H133.122V31.16H132.51V5.132ZM131.826 31.16H131.178V5.132H131.826V31.16ZM133.806 5.132H134.418V14.528V19.676V31.16H133.806V5.132ZM137.01 14.528H136.398V5.132H137.01V14.528ZM137.694 5.132H138.306V14.528H137.694V5.132ZM135.714 14.528H135.066V5.132H135.714V14.528ZM135.066 19.676H135.714V31.16H135.066V19.676ZM136.398 19.676H137.01V31.16H136.398V19.676ZM137.694 19.676H138.306V31.16H137.694V19.676ZM138.99 19.676H139.602V31.16H138.99V19.676ZM140.286 19.676H140.898V31.16H140.286V19.676ZM140.898 14.528H140.286V5.132H140.898V14.528ZM141.582 5.132H142.194V14.528H141.582V5.132ZM141.582 19.676H142.194V31.16H141.582V19.676ZM142.878 19.676H143.526V31.16H142.878V19.676ZM139.602 5.132V14.528H139.242H138.99V5.132H139.242H139.602ZM129.918 5.132H130.53V31.16H129.918V5.132ZM144.174 31.16V19.676H144.57C144.642 19.676 144.714 19.676 144.822 19.676V31.124C144.714 31.16 144.642 31.16 144.57 31.16H144.174ZM148.062 29.792V21.008C148.314 21.224 148.53 21.476 148.71 21.728V29.072C148.53 29.324 148.314 29.576 148.062 29.792ZM149.358 27.776V22.988C149.646 23.744 149.826 24.572 149.826 25.4C149.826 26.192 149.646 27.02 149.358 27.776ZM187.923 5.528C184.683 2.216 180.219 0.2 175.251 0.2C170.319 0.2 165.819 2.252 162.615 5.528C159.447 8.768 157.395 13.232 157.395 18.2C157.395 23.168 159.447 27.632 162.615 30.872C165.819 34.184 170.319 36.2 175.251 36.2C180.219 36.2 184.683 34.22 187.923 30.872C191.091 27.632 193.143 23.168 193.143 18.2C193.143 13.232 191.127 8.732 187.923 5.528ZM184.323 27.272C181.983 29.648 178.707 31.088 175.251 31.088C171.795 31.088 168.591 29.612 166.287 27.272C163.983 24.968 162.507 21.764 162.507 18.2C162.507 17.12 162.651 16.076 162.903 15.104V18.092H163.551V13.16C163.731 12.728 163.911 12.332 164.163 11.936V18.092H164.811V10.892C164.991 10.604 165.207 10.316 165.423 10.064V18.092H166.071V9.308C166.143 9.272 166.215 9.2 166.287 9.128C166.395 8.984 166.539 8.84 166.683 8.696V18.092H167.331V8.156C167.547 7.976 167.727 7.832 167.943 7.688V18.092H168.591V7.256C168.807 7.112 169.023 7.004 169.239 6.86V18.092H169.887V6.536C170.067 6.428 170.283 6.356 170.499 6.284V6.356V18.092H171.147V6.356V6.032C171.363 5.96 171.543 5.888 171.759 5.816V18.092H172.407V5.636C172.623 5.6 172.803 5.564 173.019 5.528V18.092H173.667V5.42C173.883 5.384 174.099 5.384 174.279 5.348V6.356V18.092H174.963V6.356V5.312C175.035 5.312 175.143 5.312 175.251 5.312C175.359 5.312 175.431 5.312 175.539 5.312V18.092H176.187V5.348C176.403 5.384 176.619 5.384 176.835 5.42V18.092H177.483V5.528C177.699 5.564 177.879 5.6 178.095 5.636V6.356V18.092H178.743V6.356V5.816C178.959 5.888 179.139 5.96 179.355 6.032V18.092H180.003V6.248C180.219 6.356 180.435 6.428 180.615 6.536V18.092H181.299V6.86C181.479 6.968 181.695 7.112 181.911 7.22V18.092H182.559V7.652C182.775 7.796 182.955 7.94 183.171 8.12V18.092H183.819V8.66C183.999 8.804 184.143 8.948 184.323 9.128C184.359 9.164 184.395 9.2 184.431 9.236V18.092H185.079V9.992C185.295 10.244 185.511 10.496 185.691 10.784V18.092H186.339V11.792C186.555 12.188 186.771 12.584 186.951 12.98V18.092H187.599V14.852C187.887 15.932 188.031 17.048 188.031 18.2C188.031 21.8 186.591 24.968 184.323 27.272ZM226.102 5.528C222.862 2.216 218.398 0.2 213.43 0.2C208.498 0.2 203.998 2.252 200.794 5.528C197.626 8.768 195.574 13.232 195.574 18.2C195.574 23.168 197.626 27.632 200.794 30.872C203.998 34.184 208.498 36.2 213.43 36.2C218.398 36.2 222.862 34.22 226.102 30.872C229.27 27.632 231.322 23.168 231.322 18.2C231.322 13.232 229.306 8.732 226.102 5.528ZM222.502 27.272C220.162 29.648 216.886 31.088 213.43 31.088C209.974 31.088 206.77 29.612 204.466 27.272C202.162 24.968 200.686 21.764 200.686 18.2C200.686 17.12 200.83 16.076 201.082 15.104V18.092H201.73V13.16C201.91 12.728 202.09 12.332 202.342 11.936V18.092H202.99V10.892C203.17 10.604 203.386 10.316 203.602 10.064V18.092H204.25V9.308C204.322 9.272 204.394 9.2 204.466 9.128C204.574 8.984 204.718 8.84 204.862 8.696V18.092H205.51V8.156C205.726 7.976 205.906 7.832 206.122 7.688V18.092H206.77V7.256C206.986 7.112 207.202 7.004 207.418 6.86V18.092H208.066V6.536C208.246 6.428 208.462 6.356 208.678 6.284V6.356V18.092H209.326V6.356V6.032C209.542 5.96 209.722 5.888 209.938 5.816V18.092H210.586V5.636C210.802 5.6 210.982 5.564 211.198 5.528V18.092H211.846V5.42C212.062 5.384 212.278 5.384 212.458 5.348V6.356V18.092H213.142V6.356V5.312C213.214 5.312 213.322 5.312 213.43 5.312C213.538 5.312 213.61 5.312 213.718 5.312V18.092H214.366V5.348C214.582 5.384 214.798 5.384 215.014 5.42V18.092H215.662V5.528C215.878 5.564 216.058 5.6 216.274 5.636V6.356V18.092H216.922V6.356V5.816C217.138 5.888 217.318 5.96 217.534 6.032V18.092H218.182V6.248C218.398 6.356 218.614 6.428 218.794 6.536V18.092H219.478V6.86C219.658 6.968 219.874 7.112 220.09 7.22V18.092H220.738V7.652C220.954 7.796 221.134 7.94 221.35 8.12V18.092H221.998V8.66C222.178 8.804 222.322 8.948 222.502 9.128C222.538 9.164 222.574 9.2 222.61 9.236V18.092H223.258V9.992C223.474 10.244 223.69 10.496 223.87 10.784V18.092H224.518V11.792C224.734 12.188 224.95 12.584 225.13 12.98V18.092H225.778V14.852C226.066 15.932 226.21 17.048 226.21 18.2C226.21 21.8 224.77 24.968 222.502 27.272ZM246.102 25.292L245.418 24.5L243.474 22.196L242.826 21.368L242.214 20.648L241.53 19.856L240.918 19.1L240.234 18.308L240.054 18.056L240.234 17.84L240.918 16.976L241.53 16.148L242.214 15.284L242.826 14.456L243.474 13.592L245.418 11.072L246.102 10.208L253.734 0.2H247.218L246.102 1.712V0.2H245.418V2.612L244.806 3.44V0.2H244.122V4.34L243.474 5.204V0.2H242.826V6.104L242.214 6.896V0.2H241.53V7.796L240.918 8.624V0.2H240.234V9.524L239.622 10.388V0.2H238.938V11.288L238.326 12.08V0.2H237.642V12.98L237.03 13.808V0.2H236.346V14.708L235.734 15.572V0.2H235.05V16.472L234.438 17.264V0.2H233.79V18.164L233.754 18.2L233.79 18.236V36.2H234.438V19.136L234.726 19.496L235.05 19.892V36.2H235.734V20.72L236.346 21.512V36.2H237.03V22.304L237.642 23.06V36.2H238.326V23.888L238.938 24.644V36.2H239.622V25.436L240.234 26.228V36.2H240.918V27.056L241.53 27.812V36.2H242.214V28.64L242.826 29.396V36.2H243.474V30.188L244.122 30.98V36.2H244.806V31.772L245.418 32.564V36.2H246.102V33.356L246.714 34.148V36.2H247.398V34.94L248.406 36.2H255.174L246.102 25.292Z" fill="#F9F6F6"/>
</svg>
