<svg width="264" height="37" viewBox="0 0 264 37" fill="none" xmlns="http://www.w3.org/2000/svg">
<path d="M27.612 26.012C28.02 25.388 28.356 24.74 28.62 24.068H27.612V26.012ZM18.612 31.232C18.732 31.208 18.84 31.196 18.936 31.196C19.032 31.196 19.14 31.184 19.26 31.16V24.068H18.612V31.232ZM26.316 27.668C26.436 27.548 26.544 27.428 26.64 27.308C26.736 27.188 26.844 27.068 26.964 26.948V24.068H26.316V27.668ZM25.02 28.82C25.14 28.748 25.248 28.676 25.344 28.604C25.44 28.508 25.548 28.412 25.668 28.316V24.068H25.02V28.82ZM23.76 29.684C23.88 29.612 23.976 29.54 24.048 29.468C24.144 29.42 24.252 29.36 24.372 29.288V24.068H23.76V29.684ZM22.464 30.296C22.584 30.248 22.692 30.2 22.788 30.152C22.884 30.104 22.992 30.056 23.112 30.008V24.068H22.464V30.296ZM20.52 24.068H19.908V31.052C20.148 31.004 20.352 30.956 20.52 30.908V24.068ZM21.168 30.764L21.816 30.548V24.068H21.168V30.764ZM5.112 18.848C5.136 18.896 5.148 18.944 5.148 18.992V18.848H5.112ZM34.632 18.92C34.512 20.432 34.38 21.692 34.236 22.7C34.092 23.708 33.9 24.5 33.66 25.076V25.04C33.036 26.744 32.148 28.28 30.996 29.648C29.844 31.016 28.524 32.18 27.036 33.14C25.572 34.124 24.012 34.88 22.356 35.408C20.7 35.936 19.068 36.2 17.46 36.2C15.012 36.2 12.744 35.768 10.656 34.904C8.568 34.064 6.744 32.876 5.184 31.34C3.624 29.804 2.388 27.98 1.476 25.868C0.564 23.732 0.072 21.392 0 18.848V18.236C0 16.388 0.216 14.672 0.648 13.088V18.848H1.26V11.18C1.38 10.916 1.488 10.664 1.584 10.424C1.704 10.184 1.824 9.932 1.944 9.668V18.848H2.556V8.516C2.748 8.204 2.976 7.856 3.24 7.472V18.848H3.852V6.644C3.972 6.5 4.08 6.368 4.176 6.248C4.272 6.104 4.38 5.972 4.5 5.852V18.848H5.112V5.204C5.232 5.084 5.34 4.976 5.436 4.88C5.556 4.784 5.676 4.688 5.796 4.592V22.628C5.892 22.892 5.988 23.168 6.084 23.456C6.18 23.72 6.288 23.984 6.408 24.248V4.052C6.528 3.956 6.636 3.872 6.732 3.8C6.852 3.704 6.972 3.608 7.092 3.512V25.472C7.26 25.784 7.464 26.096 7.704 26.408V3.08C7.824 3.008 7.932 2.936 8.028 2.864C8.124 2.792 8.232 2.732 8.352 2.684V27.236C8.472 27.356 8.568 27.464 8.64 27.56C8.736 27.656 8.844 27.752 8.964 27.848V2.324C9.084 2.276 9.192 2.216 9.288 2.144C9.408 2.072 9.528 2.012 9.648 1.964V28.46C9.84 28.652 10.044 28.82 10.26 28.964V1.676C10.38 1.628 10.488 1.592 10.584 1.568C10.704 1.52 10.824 1.472 10.944 1.424V29.396C11.04 29.468 11.136 29.528 11.232 29.576C11.328 29.648 11.436 29.72 11.556 29.792V1.172L12.204 0.955998V30.116C12.396 30.212 12.6 30.296 12.816 30.368V0.775999C12.936 0.751999 13.044 0.727999 13.14 0.704C13.236 0.679998 13.344 0.655998 13.464 0.631998V30.62L14.112 30.836V0.487998C14.232 0.463998 14.34 0.451998 14.436 0.451998C14.556 0.427999 14.676 0.403999 14.796 0.379999V30.98C14.892 31.004 14.988 31.028 15.084 31.052C15.18 31.076 15.288 31.088 15.408 31.088V0.307998C15.528 0.307998 15.636 0.307998 15.732 0.307998C15.828 0.283998 15.936 0.259999 16.056 0.235999V31.196C16.176 31.22 16.272 31.232 16.344 31.232C16.44 31.232 16.548 31.232 16.668 31.232V0.2H17.316V31.268H17.46H17.964V24.068V21.152V18.92H34.632ZM42.8116 17.768C43.0276 17.768 43.2436 17.732 43.4596 17.66V5.6L42.8116 5.492V17.768ZM41.6956 17.876C41.7676 17.876 41.8396 17.876 41.9116 17.876C42.0076 17.852 42.0916 17.84 42.1636 17.84V5.456C42.0916 5.432 42.0076 5.42 41.9116 5.42C41.8396 5.42 41.7676 5.42 41.6956 5.42H41.5156V17.876H41.6956ZM40.8676 17.876V5.42H40.2196V17.876H40.8676ZM39.5716 17.876V5.42H38.9236V17.876H39.5716ZM38.2756 17.876V5.42H37.6276V17.876H38.2756ZM36.9796 17.876V5.42H36.3676V17.876H36.9796ZM47.9956 13.268C48.1396 12.74 48.2116 12.188 48.2116 11.612C48.2116 11.084 48.1396 10.544 47.9956 9.992V13.268ZM44.7556 6.068C44.6356 6.02 44.5276 5.984 44.4316 5.96C44.3356 5.912 44.2276 5.864 44.1076 5.816V17.48C44.2276 17.432 44.3356 17.396 44.4316 17.372C44.5276 17.324 44.6356 17.276 44.7556 17.228V6.068ZM46.0516 6.86C45.9316 6.788 45.8236 6.716 45.7276 6.644C45.6316 6.548 45.5236 6.476 45.4036 6.428V16.868L46.0516 16.436V6.86ZM46.6996 15.788C46.9636 15.476 47.1796 15.176 47.3476 14.888V8.372C47.1556 8.084 46.9396 7.796 46.6996 7.508V15.788ZM48.8236 36.2L47.9956 35.192V36.2H47.3476V34.4L46.6996 33.644V36.2H46.0516V32.816L45.4036 32.06V36.2H44.7556V31.268L44.1076 30.512V36.2H43.4596V29.72L42.8116 28.964V36.2H42.1636V28.136L41.5156 27.38V36.2H40.8676V26.588L40.2196 25.832V36.2H39.5716V25.04L38.9236 24.284V36.2H38.2756V23.456L37.6276 22.736V36.2H36.9796V21.908L36.3676 21.152V36.2H35.6836V20.36V17.876V5.42V2.54V0.2H41.6956C43.6396 0.2 45.3316 0.536 46.7716 1.208C48.2356 1.856 49.4476 2.72 50.4076 3.8C51.3916 4.856 52.1236 6.068 52.6036 7.436C53.1076 8.804 53.3596 10.196 53.3596 11.612C53.3596 12.884 53.1676 14.12 52.7836 15.32C52.3996 16.52 51.8116 17.612 51.0196 18.596C50.2516 19.58 49.2916 20.432 48.1396 21.152C46.9876 21.848 45.6436 22.328 44.1076 22.592L55.5556 36.2H48.8236ZM75.6571 20.792H57.6211V15.536H75.6571V20.792ZM57.6211 29.504H71.1931V30.152H57.6211V29.504ZM71.1931 28.856H57.6211V28.172H71.1931V28.856ZM71.1931 27.56H57.6211V26.876H71.1931V27.56ZM71.1931 26.264H57.6211V25.58H71.1931V26.264ZM71.1931 24.968H57.6211V24.284H71.1931V24.968ZM71.1931 23.636H57.6211V22.988H71.1931V23.636ZM71.1931 22.34H57.6211V21.692H71.1931V22.34ZM71.1931 14.744H57.6211V14.06H71.1931V14.744ZM71.1931 13.448H57.6211V12.764H71.1931V13.448ZM71.1931 12.152H57.6211V11.468H71.1931V12.152ZM71.1931 10.82H57.6211V10.172H71.1931V10.82ZM71.1931 9.524H57.6211V8.876H71.1931V9.524ZM71.1931 8.228H57.6211V7.544H71.1931V8.228ZM71.1931 6.932H57.6211V6.248H71.1931V6.932ZM79.4731 31.016V36.2H57.6211V30.98H62.8411V31.016H79.4731ZM62.8411 5.42H57.6211V0.2H79.4371V5.42H63.5611H62.8411ZM99.4227 20.792H81.3867V15.536H99.4227V20.792ZM81.3867 29.504H94.9587V30.152H81.3867V29.504ZM94.9587 28.856H81.3867V28.172H94.9587V28.856ZM94.9587 27.56H81.3867V26.876H94.9587V27.56ZM94.9587 26.264H81.3867V25.58H94.9587V26.264ZM94.9587 24.968H81.3867V24.284H94.9587V24.968ZM94.9587 23.636H81.3867V22.988H94.9587V23.636ZM94.9587 22.34H81.3867V21.692H94.9587V22.34ZM94.9587 14.744H81.3867V14.06H94.9587V14.744ZM94.9587 13.448H81.3867V12.764H94.9587V13.448ZM94.9587 12.152H81.3867V11.468H94.9587V12.152ZM94.9587 10.82H81.3867V10.172H94.9587V10.82ZM94.9587 9.524H81.3867V8.876H94.9587V9.524ZM94.9587 8.228H81.3867V7.544H94.9587V8.228ZM94.9587 6.932H81.3867V6.248H94.9587V6.932ZM103.239 31.016V36.2H81.3867V30.98H86.6067V31.016H103.239ZM86.6067 5.42H81.3867V0.2H103.203V5.42H87.3267H86.6067ZM123.944 0.2V27.092V27.812V36.2L122.612 34.328V36.2H121.964V33.356L121.352 32.492V36.2H120.668V31.52L120.056 30.62V36.2H119.372V29.684L118.724 28.748V36.2H118.076V27.776L117.464 26.912V36.2H116.78V25.94L116.168 25.04V36.2H115.484V24.104L114.872 23.168V36.2H114.188V22.232L113.576 21.332V36.2H112.928V20.396L112.28 19.496V36.2H111.632V18.524L110.984 17.588V36.2H110.3V16.652L109.688 15.752V36.2H109.04V14.816L108.392 13.916V36.2H107.744V12.944L107.096 12.044V36.2H106.448V11.072L106.34 10.928V10.964L105.836 10.208V36.2H105.152V9.272V1.568V0.2L106.448 2.036V0.2H107.096V3.008L107.744 3.908V0.2H108.392V4.88L109.04 5.78V0.2H109.688V6.716L110.3 7.616V0.2H110.984V8.552L111.632 9.488V0.2H112.28V10.46L112.928 11.36V0.2H113.576V12.296L114.188 13.196V0.2H114.872V14.132L115.484 15.068V0.2H116.168V16.004L116.78 16.904V0.2H117.464V17.876L118.076 18.74V0.2H118.724V19.712L119.372 20.648V0.2H120.056V21.584L120.668 22.484V0.2H121.352V23.456L121.964 24.32V0.2H122.612V25.256L123.26 26.156V0.2H123.944ZM157.761 27.776C158.073 26.96 158.229 26.168 158.229 25.4C158.229 24.608 158.073 23.804 157.761 22.988V27.776ZM156.465 29.792C156.705 29.6 156.921 29.36 157.113 29.072V21.728C156.921 21.44 156.705 21.2 156.465 21.008V29.792ZM152.973 31.16C153.069 31.16 153.153 31.148 153.225 31.124V19.676H152.973H152.577V31.16H152.973ZM138.321 31.16H138.933V5.132H138.321V31.16ZM147.645 5.132H147.393V14.528H147.645H148.005V5.132H147.645ZM151.281 31.16H151.929V19.676H151.281V31.16ZM149.985 31.16H150.597V19.676H149.985V31.16ZM149.985 14.528H150.597V5.132H149.985V14.528ZM149.301 5.132H148.689V14.528H149.301V5.132ZM148.689 31.16H149.301V19.676H148.689V31.16ZM147.393 31.16H148.005V19.676H147.393V31.16ZM146.097 31.16H146.709V19.676H146.097V31.16ZM144.801 31.16H145.413V19.676H144.801V31.16ZM143.469 31.16H144.117V19.676H143.469V31.16ZM144.117 5.132H143.469V14.528H144.117V5.132ZM146.097 14.528H146.709V5.132H146.097V14.528ZM145.413 5.132H144.801V14.528H145.413V5.132ZM142.209 31.16H142.821V19.676V14.528V5.132H142.209V31.16ZM140.229 5.132H139.581V31.16H140.229V5.132ZM140.913 31.16H141.525V5.132H140.913V31.16ZM151.929 5.168C151.881 5.168 151.833 5.168 151.785 5.168C151.761 5.144 151.725 5.132 151.677 5.132H151.281V14.528H151.605C151.653 14.528 151.701 14.528 151.749 14.528C151.821 14.504 151.881 14.492 151.929 14.492V5.168ZM155.169 30.692C155.289 30.644 155.397 30.584 155.493 30.512C155.589 30.464 155.697 30.404 155.817 30.332V20.468C155.697 20.396 155.589 20.336 155.493 20.288C155.397 20.216 155.289 20.156 155.169 20.108V30.692ZM154.485 19.892C154.389 19.844 154.293 19.82 154.197 19.82C154.101 19.796 153.993 19.772 153.873 19.748V31.088C153.993 31.064 154.101 31.04 154.197 31.016C154.293 30.992 154.389 30.968 154.485 30.944V19.892ZM155.169 12.512C155.481 11.936 155.697 11.324 155.817 10.676V8.876C155.697 8.204 155.481 7.604 155.169 7.076V12.512ZM153.225 5.42C153.105 5.372 152.997 5.336 152.901 5.312C152.805 5.288 152.697 5.264 152.577 5.24V14.42L153.225 14.204V5.42ZM153.873 13.88C154.089 13.736 154.293 13.568 154.485 13.376V6.212C154.389 6.116 154.293 6.032 154.197 5.96C154.101 5.888 153.993 5.816 153.873 5.744V13.88ZM157.797 16.364C158.829 16.796 159.693 17.348 160.389 18.02C161.109 18.692 161.685 19.436 162.117 20.252C162.573 21.044 162.897 21.884 163.089 22.772C163.305 23.636 163.413 24.488 163.413 25.328C163.413 26.672 163.185 27.992 162.729 29.288C162.297 30.608 161.637 31.772 160.749 32.78C159.885 33.812 158.805 34.64 157.509 35.264C156.213 35.888 154.701 36.2 152.973 36.2H137.637V32.24V31.16V5.132V4.268V0.2H151.677C152.805 0.2 153.837 0.355999 154.773 0.667998C155.709 0.955998 156.537 1.376 157.257 1.928C157.977 2.456 158.601 3.08 159.129 3.8C159.657 4.52 160.089 5.3 160.425 6.14C160.785 7.028 161.013 7.94 161.109 8.876C161.229 9.812 161.193 10.736 161.001 11.648C160.809 12.536 160.449 13.388 159.921 14.204C159.393 14.996 158.685 15.716 157.797 16.364ZM192.725 27.272C193.877 26.12 194.777 24.776 195.425 23.24C196.097 21.68 196.433 20 196.433 18.2C196.433 17.048 196.289 15.932 196.001 14.852V18.092H195.353V12.98C195.257 12.788 195.161 12.596 195.065 12.404C194.969 12.188 194.861 11.984 194.741 11.792V18.092H194.093V10.784C193.997 10.64 193.901 10.508 193.805 10.388C193.709 10.244 193.601 10.112 193.481 9.992V18.092H192.833V9.236L192.725 9.128C192.629 9.032 192.545 8.948 192.473 8.876C192.401 8.804 192.317 8.732 192.221 8.66V18.092H191.573V8.12C191.333 7.928 191.129 7.772 190.961 7.652V18.092H190.313V7.22C190.193 7.172 190.085 7.112 189.989 7.04C189.893 6.968 189.797 6.908 189.701 6.86V18.092H189.017V6.536C188.921 6.488 188.825 6.44 188.729 6.392C188.633 6.344 188.525 6.296 188.405 6.248V18.092H187.757V6.032C187.637 5.984 187.529 5.948 187.433 5.924C187.361 5.9 187.265 5.864 187.145 5.816V6.356V18.092H186.497V6.356V5.636C186.377 5.612 186.269 5.6 186.173 5.6C186.101 5.576 186.005 5.552 185.885 5.528V18.092H185.237V5.42C185.117 5.396 185.009 5.384 184.913 5.384C184.817 5.384 184.709 5.372 184.589 5.348V18.092H183.941V5.312H183.653H183.365V6.356V18.092H182.681V6.356V5.348C182.585 5.372 182.489 5.384 182.393 5.384C182.297 5.384 182.189 5.396 182.069 5.42V18.092H181.421V5.528C181.301 5.552 181.193 5.576 181.097 5.6C181.025 5.6 180.929 5.612 180.809 5.636V18.092H180.161V5.816C180.041 5.864 179.933 5.9 179.837 5.924C179.765 5.948 179.669 5.984 179.549 6.032V6.356V18.092H178.901V6.356V6.284C178.781 6.332 178.673 6.38 178.577 6.428C178.481 6.452 178.385 6.488 178.289 6.536V18.092H177.641V6.86C177.521 6.932 177.413 7.004 177.317 7.076C177.221 7.124 177.113 7.184 176.993 7.256V18.092H176.345V7.688C176.177 7.808 175.973 7.964 175.733 8.156V18.092H175.085V8.696C175.013 8.768 174.941 8.84 174.869 8.912C174.797 8.984 174.737 9.056 174.689 9.128C174.593 9.224 174.521 9.284 174.473 9.308V18.092H173.825V10.064C173.585 10.328 173.381 10.604 173.213 10.892V18.092H172.565V11.936C172.445 12.128 172.337 12.332 172.241 12.548C172.145 12.74 172.049 12.944 171.953 13.16V18.092H171.305V15.104C171.041 16.112 170.909 17.144 170.909 18.2C170.909 20 171.245 21.68 171.917 23.24C172.613 24.776 173.537 26.12 174.689 27.272C175.841 28.448 177.185 29.372 178.721 30.044C180.281 30.74 181.925 31.088 183.653 31.088C185.381 31.088 187.025 30.752 188.585 30.08C190.169 29.408 191.549 28.472 192.725 27.272ZM196.325 5.528C197.933 7.136 199.205 9.032 200.141 11.216C201.077 13.376 201.545 15.704 201.545 18.2C201.545 20.696 201.065 23.024 200.105 25.184C199.169 27.344 197.909 29.24 196.325 30.872C194.693 32.552 192.797 33.86 190.637 34.796C188.477 35.732 186.149 36.2 183.653 36.2C181.181 36.2 178.853 35.72 176.669 34.76C174.509 33.824 172.625 32.528 171.017 30.872C169.433 29.24 168.161 27.344 167.201 25.184C166.265 23.024 165.797 20.696 165.797 18.2C165.797 15.704 166.265 13.376 167.201 11.216C168.161 9.056 169.433 7.16 171.017 5.528C172.625 3.872 174.509 2.576 176.669 1.64C178.853 0.679999 181.181 0.2 183.653 0.2C186.149 0.2 188.477 0.679999 190.637 1.64C192.797 2.576 194.693 3.872 196.325 5.528ZM230.905 27.272C232.057 26.12 232.957 24.776 233.605 23.24C234.277 21.68 234.613 20 234.613 18.2C234.613 17.048 234.469 15.932 234.181 14.852V18.092H233.533V12.98C233.437 12.788 233.341 12.596 233.245 12.404C233.149 12.188 233.041 11.984 232.921 11.792V18.092H232.273V10.784C232.177 10.64 232.081 10.508 231.985 10.388C231.889 10.244 231.781 10.112 231.661 9.992V18.092H231.013V9.236L230.905 9.128C230.809 9.032 230.725 8.948 230.653 8.876C230.581 8.804 230.497 8.732 230.401 8.66V18.092H229.753V8.12C229.513 7.928 229.309 7.772 229.141 7.652V18.092H228.493V7.22C228.373 7.172 228.265 7.112 228.169 7.04C228.073 6.968 227.977 6.908 227.881 6.86V18.092H227.197V6.536C227.101 6.488 227.005 6.44 226.909 6.392C226.813 6.344 226.705 6.296 226.585 6.248V18.092H225.937V6.032C225.817 5.984 225.709 5.948 225.613 5.924C225.541 5.9 225.445 5.864 225.325 5.816V6.356V18.092H224.677V6.356V5.636C224.557 5.612 224.449 5.6 224.353 5.6C224.281 5.576 224.185 5.552 224.065 5.528V18.092H223.417V5.42C223.297 5.396 223.189 5.384 223.093 5.384C222.997 5.384 222.889 5.372 222.769 5.348V18.092H222.121V5.312H221.833H221.545V6.356V18.092H220.861V6.356V5.348C220.765 5.372 220.669 5.384 220.573 5.384C220.477 5.384 220.369 5.396 220.249 5.42V18.092H219.601V5.528C219.481 5.552 219.373 5.576 219.277 5.6C219.205 5.6 219.109 5.612 218.989 5.636V18.092H218.341V5.816C218.221 5.864 218.113 5.9 218.017 5.924C217.945 5.948 217.849 5.984 217.729 6.032V6.356V18.092H217.081V6.356V6.284C216.961 6.332 216.853 6.38 216.757 6.428C216.661 6.452 216.565 6.488 216.469 6.536V18.092H215.821V6.86C215.701 6.932 215.593 7.004 215.497 7.076C215.401 7.124 215.293 7.184 215.173 7.256V18.092H214.525V7.688C214.357 7.808 214.153 7.964 213.913 8.156V18.092H213.265V8.696C213.193 8.768 213.121 8.84 213.049 8.912C212.977 8.984 212.917 9.056 212.869 9.128C212.773 9.224 212.701 9.284 212.653 9.308V18.092H212.005V10.064C211.765 10.328 211.561 10.604 211.393 10.892V18.092H210.745V11.936C210.625 12.128 210.517 12.332 210.421 12.548C210.325 12.74 210.229 12.944 210.133 13.16V18.092H209.485V15.104C209.221 16.112 209.089 17.144 209.089 18.2C209.089 20 209.425 21.68 210.097 23.24C210.793 24.776 211.717 26.12 212.869 27.272C214.021 28.448 215.365 29.372 216.901 30.044C218.461 30.74 220.105 31.088 221.833 31.088C223.561 31.088 225.205 30.752 226.765 30.08C228.349 29.408 229.729 28.472 230.905 27.272ZM234.505 5.528C236.113 7.136 237.385 9.032 238.321 11.216C239.257 13.376 239.725 15.704 239.725 18.2C239.725 20.696 239.245 23.024 238.285 25.184C237.349 27.344 236.089 29.24 234.505 30.872C232.873 32.552 230.977 33.86 228.817 34.796C226.657 35.732 224.329 36.2 221.833 36.2C219.361 36.2 217.033 35.72 214.849 34.76C212.689 33.824 210.805 32.528 209.197 30.872C207.613 29.24 206.341 27.344 205.381 25.184C204.445 23.024 203.977 20.696 203.977 18.2C203.977 15.704 204.445 13.376 205.381 11.216C206.341 9.056 207.613 7.16 209.197 5.528C210.805 3.872 212.689 2.576 214.849 1.64C217.033 0.679999 219.361 0.2 221.833 0.2C224.329 0.2 226.657 0.679999 228.817 1.64C230.977 2.576 232.873 3.872 234.505 5.528ZM263.576 36.2H256.808L255.8 34.94V36.2H255.116V34.148L254.504 33.356V36.2H253.82V32.564L253.208 31.772V36.2H252.524V30.98L251.876 30.188V36.2H251.228V29.396L250.616 28.64V36.2H249.932V27.812L249.32 27.056V36.2H248.636V26.228L248.024 25.436V36.2H247.34V24.644L246.728 23.888V36.2H246.044V23.06L245.432 22.304V36.2H244.748V21.512L244.136 20.72V36.2H243.452V19.892L243.128 19.496L242.84 19.136V36.2H242.192V18.236L242.156 18.2L242.192 18.164V0.2H242.84V17.264L243.452 16.472V0.2H244.136V15.572L244.748 14.708V0.2H245.432V13.808L246.044 12.98V0.2H246.728V12.08L247.34 11.288V0.2H248.024V10.388L248.636 9.524V0.2H249.32V8.624L249.932 7.796V0.2H250.616V6.896L251.228 6.104V0.2H251.876V5.204L252.524 4.34V0.2H253.208V3.44L253.82 2.612V0.2H254.504V1.712L255.62 0.2H262.136L254.504 10.208L253.82 11.072L251.876 13.592L251.228 14.456L250.616 15.284L249.932 16.148L249.32 16.976L248.636 17.84L248.456 18.056L248.636 18.308L249.32 19.1L249.932 19.856L250.616 20.648L251.228 21.368L251.876 22.196L253.82 24.5L254.504 25.292L263.576 36.2Z" fill="black"/>
</svg>
